<?xml version="1.0" encoding="UTF-8" standalone="no"?>
<!DOCTYPE svg PUBLIC "-//W3C//DTD SVG 1.1//EN" "http://www.w3.org/Graphics/SVG/1.1/DTD/svg11.dtd">
<svg width="100%" height="100%" viewBox="0 0 48 48" version="1.1" xmlns="http://www.w3.org/2000/svg" xmlns:xlink="http://www.w3.org/1999/xlink" xml:space="preserve" xmlns:serif="http://www.serif.com/" style="fill-rule:evenodd;clip-rule:evenodd;stroke-miterlimit:10;">
    <rect id="rect7002" x="0.153" y="0.175" width="47.799" height="47.799" style="fill:none;"/>
    <g id="circle3" transform="matrix(0.572657,0,0,0.572657,-1.116038,-0.616008)">
        <circle cx="32" cy="32" r="28.678" style="fill:rgb(109,151,196);stroke:rgb(68,94,117);stroke-width:1px;"/>
    </g>
    <path id="path5" d="M3.908,20.686C4.327,15.864 5.269,12.972 8.262,9.978C11.496,6.745 14.49,5.245 20.148,3.957C22.928,3.325 18.113,1.229 11.45,3.722C7.871,5.061 4.238,8.555 2.963,13.647C1.419,19.812 3.716,22.893 3.908,20.686Z" style="fill:white;fill-opacity:0.3;fill-rule:nonzero;"/>
    <path id="path7" d="M21.146,24.622L20.739,24.216C20.369,23.846 19.659,23.919 19.366,24.358C19.182,24.634 18.333,25.513 17.797,25.927C17.864,25.652 17.991,25.233 18.23,24.553L20.377,18.456C20.882,17.013 21.187,16.141 21.187,15.398C21.187,14.222 20.32,13.461 18.979,13.461C15.593,13.461 12.943,16.519 11.962,17.833C11.949,17.849 11.938,17.865 11.927,17.88C11.758,18.072 11.691,18.327 11.744,18.59C11.785,18.792 11.896,18.989 12.066,19.159L12.371,19.463C12.553,19.645 12.789,19.745 13.037,19.745C13.222,19.745 13.499,19.688 13.772,19.412L13.822,19.353C14.176,18.882 14.836,18.171 15.319,17.733C15.236,18.014 15.118,18.36 14.98,18.758L13.487,23.11C12.424,26.184 12.026,27.335 12.026,27.976C12.026,28.813 12.561,29.708 14.064,29.708C18.734,29.708 21.036,26.239 21.289,25.835C21.546,25.404 21.496,24.974 21.146,24.622L21.146,24.622Z" style="fill:white;fill-rule:nonzero;stroke:rgb(52,73,125);stroke-width:0.57px;"/>
    <path id="path9" d="M19.249,6.474C17.748,6.474 16.431,7.775 16.431,9.258C16.431,10.949 17.564,12.041 19.317,12.041C21.038,12.041 22.372,10.454 22.372,9.088C22.373,7.883 21.555,6.474 19.249,6.474Z" style="fill:white;fill-rule:nonzero;stroke:rgb(52,73,125);stroke-width:0.57px;"/>
    <g transform="matrix(1.555481,0,0,1.555481,21.187791,20.989305)">
        <g transform="matrix(0.642888,0,0,0.642888,-13.621373,-13.493769)">
            <path d="M27.41,30.322C26.556,30.322 25.854,29.62 25.854,28.767L25.854,22.545L41.409,22.545L41.409,28.767C41.409,29.62 40.707,30.322 39.854,30.322L27.41,30.322ZM39.854,24.1L36.743,24.1L36.743,28.767L39.854,28.767L39.854,24.1ZM25.854,34.989L41.409,34.989C42.262,34.989 42.965,35.691 42.965,36.544L42.965,44.322L24.299,44.322L24.299,36.544C24.299,35.691 25.001,34.989 25.854,34.989Z" style="fill:white;"/>
        </g>
        <rect x="10" y="2" width="2" height="3" style="fill-rule:nonzero;"/>
        <path d="M1.5,0C0.677,0 -0,0.677 0,1.5L0,14.5C0,15.323 0.677,16 1.5,16L14.5,16C15.323,16 16,15.323 16,14.5L16,2.914C16,2.516 15.841,2.135 15.56,1.854L14.147,0.439C13.866,0.158 13.484,-0 13.086,-0L1.5,0ZM4,6C3.451,6 3,5.549 3,5L3,1L13,1L13,5C13,5.549 12.549,6 12,6L4,6ZM3,9L13,9C13.549,9 14,9.451 14,10L14,15L2,15L2,10C2,9.451 2.451,9 3,9" style="fill-rule:nonzero;"/>
    </g>
</svg>
